<svg xmlns="http://www.w3.org/2000/svg" xmlns:xlink="http://www.w3.org/1999/xlink" width="16" height="16" viewBox="0 0 16 16">
  <defs>
    <style>
      .cls-1 {
        fill-rule: evenodd;
        fill: url(#linear-gradient);
      }
    </style>
    <linearGradient id="linear-gradient" x1="15" y1="8.256" x2="1" y2="8.744" gradientUnits="userSpaceOnUse">
      <stop offset="0" stop-color="#003cff"/>
      <stop offset="1" stop-color="#5c00b2"/>
    </linearGradient>
  </defs>
  <path class="cls-1" d="M14.632,4.393H3.98a0.347,0.347,0,0,0-.07.007,0.824,0.824,0,0,0-.6.939v6.225a0.389,0.389,0,0,1-.106.269,3.588,3.588,0,0,1-1.736.927,0.372,0.372,0,0,1-.456-0.372V3.309a0.4,0.4,0,0,1,0-.054A1.322,1.322,0,0,1,2.2,2H14.632A0.376,0.376,0,0,1,15,2.383V4.01A0.376,0.376,0,0,1,14.632,4.393Zm-13.5,9.418A6.916,6.916,0,0,1,3.9,12.4h8.178a0.311,0.311,0,0,0,.3-0.317L12.375,7.567a0.311,0.311,0,0,1,.3-0.317h1.971a0.311,0.311,0,0,1,.3.317L14.94,14.681a0.311,0.311,0,0,1-.3.316L2.192,15a0.292,0.292,0,0,1-.053,0,1.443,1.443,0,0,1-1.126-.837A0.322,0.322,0,0,1,1.127,13.811Z"/>
</svg>
